<?xml version="1.0" standalone="no"?>
<!DOCTYPE svg PUBLIC "-//W3C//DTD SVG 20010904//EN"
 "http://www.w3.org/TR/2001/REC-SVG-20010904/DTD/svg10.dtd">
<svg version="1.0" xmlns="http://www.w3.org/2000/svg"
 width="512.000000pt" height="512.000000pt" viewBox="0 0 512.000000 512.000000"
 preserveAspectRatio="xMidYMid meet">
<metadata>
Created by potrace 1.14, written by Peter Selinger 2001-2017
</metadata>
<g transform="translate(0.000000,512.000000) scale(0.100000,-0.100000)"
fill="#000000" stroke="none">
<path d="M2410 4733 c-28 -7 -60 -22 -72 -33 -34 -32 -51 -32 -109 -2 -46 23
-66 28 -110 25 -30 -2 -62 -4 -71 -4 -10 0 -18 -4 -18 -10 0 -5 -3 -8 -7 -7
-5 0 -24 -6 -43 -15 -19 -8 -39 -12 -45 -9 -16 10 -35 13 -110 14 -84 2 -135
-6 -184 -29 -39 -19 -101 -76 -101 -93 0 -6 -4 -9 -10 -5 -5 3 -16 -8 -25 -25
-14 -26 -20 -29 -47 -25 -18 4 -37 9 -43 13 -16 12 -81 5 -162 -17 -55 -15
-133 -78 -158 -127 -17 -33 -54 -73 -62 -67 -2 1 -19 -5 -38 -13 -32 -13 -84
-54 -68 -54 3 0 -4 -9 -16 -19 -12 -11 -22 -23 -22 -28 1 -13 -21 -77 -30 -89
-5 -6 -6 -14 -3 -17 4 -3 -1 -13 -10 -22 -9 -9 -17 -23 -17 -31 -1 -14 -4 -27
-9 -41 -1 -5 -2 -11 -1 -15 0 -4 -11 -16 -24 -26 -14 -11 -25 -23 -25 -28 0
-4 -8 -16 -18 -27 -13 -15 -17 -38 -18 -106 0 -74 3 -91 23 -121 21 -31 21
-36 8 -57 -9 -13 -13 -23 -10 -23 4 0 0 -7 -8 -15 -17 -16 -14 -137 4 -143 5
-2 7 -8 3 -13 -3 -5 -2 -9 3 -9 4 0 14 -14 22 -31 7 -17 21 -33 30 -37 9 -3
27 -16 40 -28 13 -12 39 -25 58 -29 18 -3 33 -9 34 -13 3 -34 10 -83 15 -112
4 -19 8 -46 10 -60 13 -88 60 -345 64 -345 1 0 3 -9 4 -20 2 -11 6 -38 9 -60
21 -142 21 -148 0 -136 -22 11 -79 23 -70 15 3 -3 -3 -14 -14 -25 -10 -10 -20
-28 -20 -39 -1 -11 -2 -30 -3 -42 -3 -42 33 -208 46 -208 4 0 7 -3 6 -7 -3
-12 12 -82 24 -112 6 -14 13 -35 15 -45 2 -11 7 -24 12 -30 4 -6 11 -24 15
-41 17 -68 88 -147 117 -129 17 10 39 -24 43 -68 1 -10 5 -21 9 -24 4 -4 7
-16 7 -26 0 -10 5 -18 11 -18 5 0 8 -4 4 -9 -3 -5 1 -15 8 -23 13 -14 35 -59
33 -68 0 -3 11 -18 26 -33 14 -14 29 -35 33 -46 3 -11 15 -23 26 -26 10 -4 19
-11 19 -16 0 -12 91 -99 103 -99 5 0 6 -4 2 -9 -3 -5 5 -13 17 -17 13 -4 33
-18 45 -31 13 -13 23 -20 23 -16 0 4 5 0 11 -9 5 -10 16 -18 22 -18 7 0 19 -9
27 -20 8 -11 19 -20 25 -20 5 0 26 -14 45 -30 19 -16 40 -30 45 -30 6 0 17 -9
25 -20 8 -11 20 -20 27 -20 7 0 13 -4 13 -10 0 -5 6 -10 13 -10 7 0 19 -10 27
-22 27 -40 114 -127 122 -122 4 3 8 2 8 -3 0 -8 54 -36 66 -33 4 1 10 -3 13
-8 12 -20 130 -52 188 -51 77 1 183 19 183 31 0 5 5 6 11 3 5 -4 27 4 47 18
21 13 47 27 60 31 12 4 20 12 17 17 -4 5 -1 9 4 9 12 0 151 133 151 145 0 4
10 20 21 37 18 25 19 32 8 39 -11 7 -11 9 -1 9 7 0 34 21 59 47 26 27 50 47
55 46 4 -2 8 0 8 5 0 8 14 24 110 132 36 40 67 77 69 84 7 18 28 36 35 29 3
-4 6 2 6 12 0 26 13 9 18 -23 2 -15 10 -34 18 -43 8 -8 14 -20 14 -26 0 -5 10
-15 23 -21 l22 -11 -22 0 c-13 -1 -23 -6 -23 -12 0 -5 -4 -8 -9 -5 -10 6 -65
-38 -67 -54 -1 -5 -2 -11 -3 -12 -2 -2 -5 -14 -7 -27 -2 -14 -6 -26 -8 -29
-11 -10 20 -80 45 -104 32 -30 36 -46 14 -54 -8 -4 -15 -12 -15 -19 0 -7 -5
-15 -12 -17 -14 -5 -20 -30 -19 -92 0 -43 5 -53 40 -86 22 -21 46 -40 53 -43
10 -5 10 -8 -2 -19 -8 -7 -20 -24 -26 -38 -12 -28 -10 -110 4 -119 5 -3 11
-13 14 -21 6 -15 120 -79 149 -84 7 -1 23 -7 34 -13 11 -5 26 -8 33 -6 6 3 12
0 12 -5 0 -5 12 -12 28 -15 15 -3 41 -8 57 -12 27 -6 82 -14 110 -17 16 -1
203 13 226 17 12 2 47 7 78 11 31 3 58 9 61 13 3 4 30 13 60 20 64 16 175 72
227 116 7 5 19 15 27 22 7 6 17 9 20 6 3 -4 6 0 6 8 0 8 16 31 35 52 19 21 33
43 30 48 -4 5 -2 9 3 9 5 0 22 26 38 58 16 31 34 60 39 64 6 5 5 8 -4 8 -11 0
-11 3 -1 15 7 8 10 22 6 30 -3 9 -2 13 4 10 10 -6 14 28 12 110 -1 66 -13 129
-25 137 -7 4 -9 8 -4 8 4 0 1 13 -8 30 -8 16 -15 33 -15 37 0 17 -12 43 -20
43 -4 0 -15 18 -23 39 -9 22 -21 42 -27 46 -6 3 -20 25 -32 48 -11 23 -29 49
-39 58 -11 9 -19 23 -19 31 0 9 -7 21 -15 28 -8 7 -12 16 -9 21 3 5 1 9 -4 9
-5 0 -20 27 -35 60 -14 33 -21 60 -16 60 6 0 7 6 2 13 -11 16 -11 87 0 87 4 0
6 4 3 9 -3 5 -1 24 5 42 13 41 16 52 18 62 0 4 12 28 25 55 36 68 52 136 40
169 -10 30 -73 78 -107 81 -59 4 -122 0 -125 -8 -2 -6 -8 -8 -13 -4 -5 3 -9 0
-9 -6 0 -6 -4 -8 -10 -5 -13 8 -113 -91 -135 -135 -10 -19 -23 -38 -29 -42 -7
-5 -6 -8 4 -8 11 -1 10 -4 -4 -15 -11 -8 -17 -15 -14 -15 4 0 3 -13 -2 -30 -6
-21 -5 -30 3 -30 8 0 8 -3 -1 -9 -16 -10 -14 -112 2 -123 7 -5 7 -8 1 -8 -6 0
-9 -23 -8 -51 0 -28 -3 -63 -8 -78 -12 -33 -75 -85 -95 -77 -7 3 -14 1 -14 -4
0 -15 -57 -12 -63 3 -4 9 -6 8 -6 -2 -1 -10 -7 -10 -27 4 -15 9 -23 12 -19 5
5 -9 1 -8 -16 1 -27 15 -36 17 -94 24 -97 12 -188 15 -224 6 -32 -7 -38 -6
-34 5 3 8 9 14 14 14 5 0 9 9 9 20 0 11 5 20 11 20 5 0 8 4 4 9 -3 5 2 17 11
25 8 9 13 16 9 16 -3 0 0 10 7 23 7 12 13 24 13 27 2 13 39 106 47 116 4 6 9
19 11 30 2 10 9 32 15 47 7 16 12 32 12 37 0 15 58 42 62 29 4 -12 58 -1 58
12 0 5 6 9 13 9 7 0 19 16 26 35 7 19 17 35 22 35 6 0 8 4 5 9 -4 5 -2 20 3
34 10 27 22 122 26 208 1 31 5 61 8 66 3 5 2 15 -3 22 -4 8 -4 26 0 42 5 15 6
30 2 33 -3 3 -7 20 -9 38 -6 59 -23 103 -51 136 -34 40 -74 42 -122 7 -18 -13
-36 -22 -40 -20 -4 3 -13 58 -19 122 -7 65 -14 129 -17 143 -6 37 -15 129 -17
177 -1 24 -5 43 -9 43 -4 0 -7 10 -6 23 1 12 -2 58 -7 102 -11 106 -10 148 4
153 6 2 11 11 11 19 0 9 3 14 6 10 15 -14 71 74 59 93 -3 5 0 10 6 12 6 2 13
30 16 63 5 56 3 62 -24 90 -16 17 -41 35 -56 42 -26 12 -28 30 -6 59 5 6 6 14
2 18 -4 4 -8 50 -10 103 -3 103 -13 128 -62 170 -14 12 -41 25 -59 29 -25 5
-37 16 -54 48 -24 48 -58 86 -75 86 -7 0 -13 3 -13 8 0 8 -121 58 -132 54 -5
-1 -8 2 -8 7 0 5 -19 13 -42 17 -24 4 -46 9 -50 10 -5 1 -17 2 -29 3 -11 0
-23 9 -26 20 -4 17 -64 55 -89 56 -7 0 -27 16 -45 35 -58 61 -113 75 -199 53z"/>
</g>
</svg>
